<mxfile host="65bd71144e">
    <diagram id="xKqrUdzFJxG2WqbacUfO" name="Page-1">
        <mxGraphModel dx="1364" dy="769" grid="1" gridSize="10" guides="1" tooltips="1" connect="1" arrows="1" fold="1" page="1" pageScale="1" pageWidth="3300" pageHeight="4681" math="0" shadow="0">
            <root>
                <mxCell id="0"/>
                <mxCell id="1" parent="0"/>
                <mxCell id="2" value="&lt;font color=&quot;#000000&quot;&gt;Core&lt;/font&gt;" style="whiteSpace=wrap;html=1;fillColor=#33FF33;strokeColor=#000000;" parent="1" vertex="1">
                    <mxGeometry x="50" y="160" width="70" height="70" as="geometry"/>
                </mxCell>
                <mxCell id="3" value="&lt;font color=&quot;#000000&quot;&gt;Supporting&lt;/font&gt;" style="whiteSpace=wrap;html=1;fillColor=#66B2FF;strokeColor=#000000;" parent="1" vertex="1">
                    <mxGeometry x="137.14" y="160" width="70" height="70" as="geometry"/>
                </mxCell>
                <mxCell id="4" value="&lt;font color=&quot;#000000&quot;&gt;Generic&lt;/font&gt;" style="whiteSpace=wrap;html=1;fillColor=#B3B3B3;strokeColor=#000000;" parent="1" vertex="1">
                    <mxGeometry x="50" y="250" width="70" height="70" as="geometry"/>
                </mxCell>
                <mxCell id="18" value="&lt;p&gt;&lt;br&gt;&lt;/p&gt;" style="whiteSpace=wrap;html=1;fillColor=#B3B3B3;strokeColor=#000000;movable=1;resizable=1;rotatable=1;deletable=1;editable=1;connectable=1;" parent="1" vertex="1">
                    <mxGeometry x="1370" y="840" width="250" height="250" as="geometry"/>
                </mxCell>
                <mxCell id="19" value="&lt;font style=&quot;font-size: 18px;&quot; color=&quot;#000000&quot;&gt;Scheduling&lt;/font&gt;" style="text;html=1;align=center;verticalAlign=middle;resizable=1;points=[];autosize=1;strokeColor=none;fillColor=none;movable=1;rotatable=1;deletable=1;editable=1;connectable=1;" parent="1" vertex="1">
                    <mxGeometry x="1440" y="855" width="110" height="40" as="geometry"/>
                </mxCell>
                <mxCell id="20" value="&lt;font style=&quot;font-size: 16px;&quot; color=&quot;#000000&quot;&gt;Scheduler&lt;/font&gt;" style="whiteSpace=wrap;html=1;fontColor=#FFFFFF;fillColor=transparent;strokeColor=#FF0000;" parent="1" vertex="1">
                    <mxGeometry x="1435" y="910" width="120" height="60" as="geometry"/>
                </mxCell>
                <mxCell id="21" value="&lt;font style=&quot;font-size: 16px;&quot; color=&quot;#000000&quot;&gt;Jobs&lt;/font&gt;" style="whiteSpace=wrap;html=1;fontColor=#FFFFFF;fillColor=transparent;strokeColor=#FF0000;" parent="1" vertex="1">
                    <mxGeometry x="1435" y="990" width="120" height="60" as="geometry"/>
                </mxCell>
                <mxCell id="59" style="edgeStyle=none;html=1;exitX=0;exitY=0.5;exitDx=0;exitDy=0;entryX=1;entryY=0.5;entryDx=0;entryDy=0;fontSize=16;fontColor=#000000;" parent="1" target="41" edge="1">
                    <mxGeometry relative="1" as="geometry">
                        <mxPoint x="1032.5" y="965" as="sourcePoint"/>
                        <mxPoint x="970" y="965" as="targetPoint"/>
                    </mxGeometry>
                </mxCell>
                <mxCell id="60" value="" style="edgeStyle=none;html=1;fontSize=16;fontColor=#000000;" parent="1" source="33" target="18" edge="1">
                    <mxGeometry relative="1" as="geometry"/>
                </mxCell>
                <mxCell id="33" value="&lt;p&gt;&lt;br&gt;&lt;/p&gt;" style="whiteSpace=wrap;html=1;fillColor=#66B2FF;strokeColor=#000000;movable=1;resizable=1;rotatable=1;deletable=1;editable=1;connectable=1;" parent="1" vertex="1">
                    <mxGeometry x="1017.5" y="840" width="300" height="250" as="geometry"/>
                </mxCell>
                <mxCell id="34" value="&lt;font style=&quot;font-size: 18px;&quot; color=&quot;#000000&quot;&gt;Order Fulfillment&lt;/font&gt;" style="text;html=1;align=center;verticalAlign=middle;resizable=1;points=[];autosize=1;strokeColor=none;fillColor=none;movable=1;rotatable=1;deletable=1;editable=1;connectable=1;" parent="1" vertex="1">
                    <mxGeometry x="1092.5" y="855" width="160" height="40" as="geometry"/>
                </mxCell>
                <mxCell id="36" value="&lt;font style=&quot;font-size: 16px;&quot; color=&quot;#000000&quot;&gt;Delivery&lt;/font&gt;" style="whiteSpace=wrap;html=1;fontColor=#FFFFFF;fillColor=transparent;strokeColor=#FF0000;" parent="1" vertex="1">
                    <mxGeometry x="1182.5" y="910" width="120" height="60" as="geometry"/>
                </mxCell>
                <mxCell id="37" value="&lt;font style=&quot;font-size: 16px;&quot; color=&quot;#000000&quot;&gt;Stock&lt;/font&gt;" style="whiteSpace=wrap;html=1;fontColor=#FFFFFF;fillColor=transparent;strokeColor=#FF0000;" parent="1" vertex="1">
                    <mxGeometry x="1047.5" y="910" width="120" height="60" as="geometry"/>
                </mxCell>
                <mxCell id="38" value="&lt;font style=&quot;font-size: 16px;&quot; color=&quot;#000000&quot;&gt;Delivery Tracking&lt;/font&gt;" style="whiteSpace=wrap;html=1;fontColor=#FFFFFF;fillColor=transparent;strokeColor=#FF0000;" parent="1" vertex="1">
                    <mxGeometry x="1122.5" y="995" width="120" height="60" as="geometry"/>
                </mxCell>
                <mxCell id="67" style="edgeStyle=none;html=1;exitX=0;exitY=0.5;exitDx=0;exitDy=0;entryX=1;entryY=0.5;entryDx=0;entryDy=0;fontSize=16;fontColor=#000000;" parent="1" source="41" target="62" edge="1">
                    <mxGeometry relative="1" as="geometry"/>
                </mxCell>
                <mxCell id="41" value="&lt;p&gt;&lt;br&gt;&lt;/p&gt;" style="whiteSpace=wrap;html=1;fillColor=#33FF33;strokeColor=#000000;movable=1;resizable=1;rotatable=1;deletable=1;editable=1;connectable=1;container=0;" parent="1" vertex="1">
                    <mxGeometry x="687.5" y="840" width="250" height="250" as="geometry"/>
                </mxCell>
                <mxCell id="42" value="&lt;font style=&quot;font-size: 18px;&quot; color=&quot;#000000&quot;&gt;Products&lt;/font&gt;" style="text;html=1;align=center;verticalAlign=middle;resizable=1;points=[];autosize=1;strokeColor=none;fillColor=none;movable=1;rotatable=1;deletable=1;editable=1;connectable=1;container=0;" parent="1" vertex="1">
                    <mxGeometry x="767.5" y="855" width="90" height="40" as="geometry"/>
                </mxCell>
                <mxCell id="43" value="&lt;span style=&quot;color: rgb(0, 0, 0); font-size: 16px;&quot;&gt;Meals Catalog&lt;/span&gt;" style="whiteSpace=wrap;html=1;fontColor=#FFFFFF;fillColor=transparent;strokeColor=#FF3333;container=0;" parent="1" vertex="1">
                    <mxGeometry x="752.5" y="935" width="120" height="60" as="geometry"/>
                </mxCell>
                <mxCell id="73" value="" style="edgeStyle=none;html=1;" parent="1" source="50" target="68" edge="1">
                    <mxGeometry relative="1" as="geometry"/>
                </mxCell>
                <mxCell id="50" value="&lt;p&gt;&lt;br&gt;&lt;/p&gt;" style="whiteSpace=wrap;html=1;fillColor=#B3B3B3;strokeColor=#000000;movable=1;resizable=1;rotatable=1;deletable=1;editable=1;connectable=1;" parent="1" vertex="1">
                    <mxGeometry x="310" y="160" width="300" height="250" as="geometry"/>
                </mxCell>
                <mxCell id="51" value="&lt;font style=&quot;font-size: 18px;&quot; color=&quot;#000000&quot;&gt;Users&lt;/font&gt;" style="text;html=1;align=center;verticalAlign=middle;resizable=1;points=[];autosize=1;strokeColor=none;fillColor=none;movable=1;rotatable=1;deletable=1;editable=1;connectable=1;" parent="1" vertex="1">
                    <mxGeometry x="430" y="175" width="70" height="40" as="geometry"/>
                </mxCell>
                <mxCell id="52" value="&lt;font style=&quot;font-size: 16px;&quot; color=&quot;#000000&quot;&gt;Registration&lt;/font&gt;" style="whiteSpace=wrap;html=1;fontColor=#FFFFFF;fillColor=transparent;strokeColor=#FF0000;" parent="1" vertex="1">
                    <mxGeometry x="340" y="230" width="120" height="60" as="geometry"/>
                </mxCell>
                <mxCell id="53" value="&lt;font style=&quot;font-size: 16px;&quot; color=&quot;#000000&quot;&gt;Identity&lt;/font&gt;" style="whiteSpace=wrap;html=1;fontColor=#FFFFFF;fillColor=transparent;strokeColor=#FF0000;" parent="1" vertex="1">
                    <mxGeometry x="405" y="310" width="120" height="60" as="geometry"/>
                </mxCell>
                <mxCell id="54" value="&lt;font style=&quot;font-size: 16px;&quot; color=&quot;#000000&quot;&gt;Authentication&lt;/font&gt;" style="whiteSpace=wrap;html=1;fontColor=#FFFFFF;fillColor=transparent;strokeColor=#FF0000;" parent="1" vertex="1">
                    <mxGeometry x="470" y="230" width="120" height="60" as="geometry"/>
                </mxCell>
                <mxCell id="62" value="&lt;p&gt;&lt;br&gt;&lt;/p&gt;" style="whiteSpace=wrap;html=1;fillColor=#33FF33;strokeColor=#000000;movable=1;resizable=1;rotatable=1;deletable=1;editable=1;connectable=1;" parent="1" vertex="1">
                    <mxGeometry x="305" y="840" width="300" height="250" as="geometry"/>
                </mxCell>
                <mxCell id="63" value="&lt;font style=&quot;font-size: 18px;&quot; color=&quot;#000000&quot;&gt;Customers&lt;/font&gt;" style="text;html=1;align=center;verticalAlign=middle;resizable=1;points=[];autosize=1;strokeColor=none;fillColor=none;movable=1;rotatable=1;deletable=1;editable=1;connectable=1;" parent="1" vertex="1">
                    <mxGeometry x="405" y="855" width="110" height="40" as="geometry"/>
                </mxCell>
                <mxCell id="64" value="&lt;font style=&quot;font-size: 16px;&quot; color=&quot;#000000&quot;&gt;Delivery Scheduling&lt;/font&gt;" style="whiteSpace=wrap;html=1;fontColor=#FFFFFF;fillColor=transparent;strokeColor=#FF0000;" parent="1" vertex="1">
                    <mxGeometry x="465" y="910" width="120" height="60" as="geometry"/>
                </mxCell>
                <mxCell id="65" value="&lt;font style=&quot;font-size: 16px;&quot; color=&quot;#000000&quot;&gt;Preferences&lt;/font&gt;" style="whiteSpace=wrap;html=1;fontColor=#FFFFFF;fillColor=transparent;strokeColor=#FF0000;" parent="1" vertex="1">
                    <mxGeometry x="330" y="910" width="120" height="60" as="geometry"/>
                </mxCell>
                <mxCell id="66" value="&lt;font style=&quot;font-size: 16px;&quot; color=&quot;#000000&quot;&gt;Meal Customization&lt;/font&gt;" style="whiteSpace=wrap;html=1;fontColor=#FFFFFF;fillColor=transparent;strokeColor=#FF0000;" parent="1" vertex="1">
                    <mxGeometry x="465" y="995" width="120" height="60" as="geometry"/>
                </mxCell>
                <mxCell id="15" value="&lt;font style=&quot;font-size: 16px;&quot; color=&quot;#000000&quot;&gt;Subscriptions&lt;/font&gt;" style="whiteSpace=wrap;html=1;fontColor=#FFFFFF;fillColor=transparent;strokeColor=#FF0000;" parent="1" vertex="1">
                    <mxGeometry x="330" y="995" width="120" height="60" as="geometry"/>
                </mxCell>
                <mxCell id="72" style="edgeStyle=none;html=1;exitX=0.5;exitY=1;exitDx=0;exitDy=0;entryX=0.5;entryY=0;entryDx=0;entryDy=0;" parent="1" source="68" target="62" edge="1">
                    <mxGeometry relative="1" as="geometry"/>
                </mxCell>
                <mxCell id="68" value="&lt;p&gt;&lt;br&gt;&lt;/p&gt;" style="whiteSpace=wrap;html=1;fillColor=#B3B3B3;strokeColor=#000000;movable=1;resizable=1;rotatable=1;deletable=1;editable=1;connectable=1;" parent="1" vertex="1">
                    <mxGeometry x="330" y="500" width="250" height="250" as="geometry"/>
                </mxCell>
                <mxCell id="69" value="&lt;font style=&quot;font-size: 18px;&quot; color=&quot;#000000&quot;&gt;Billing&lt;/font&gt;" style="text;html=1;align=center;verticalAlign=middle;resizable=1;points=[];autosize=1;strokeColor=none;fillColor=none;movable=1;rotatable=1;deletable=1;editable=1;connectable=1;" parent="1" vertex="1">
                    <mxGeometry x="420" y="515" width="70" height="40" as="geometry"/>
                </mxCell>
                <mxCell id="70" value="&lt;font style=&quot;font-size: 16px;&quot; color=&quot;#000000&quot;&gt;Payments&lt;/font&gt;" style="whiteSpace=wrap;html=1;fontColor=#FFFFFF;fillColor=transparent;strokeColor=#FF0000;" parent="1" vertex="1">
                    <mxGeometry x="395" y="570" width="120" height="60" as="geometry"/>
                </mxCell>
                <mxCell id="71" value="&lt;font style=&quot;font-size: 16px;&quot; color=&quot;#000000&quot;&gt;Credit Card Management&lt;/font&gt;" style="whiteSpace=wrap;html=1;fontColor=#FFFFFF;fillColor=transparent;strokeColor=#FF0000;" parent="1" vertex="1">
                    <mxGeometry x="395" y="650" width="120" height="60" as="geometry"/>
                </mxCell>
                <mxCell id="84" style="edgeStyle=none;html=1;exitX=0;exitY=0.5;exitDx=0;exitDy=0;entryX=1;entryY=0.5;entryDx=0;entryDy=0;" parent="1" source="79" target="50" edge="1">
                    <mxGeometry relative="1" as="geometry"/>
                </mxCell>
                <mxCell id="79" value="&lt;p&gt;&lt;br&gt;&lt;/p&gt;" style="whiteSpace=wrap;html=1;fillColor=#B3B3B3;strokeColor=#000000;movable=1;resizable=1;rotatable=1;deletable=1;editable=1;connectable=1;" parent="1" vertex="1">
                    <mxGeometry x="690" y="160" width="250" height="250" as="geometry"/>
                </mxCell>
                <mxCell id="80" value="&lt;font style=&quot;font-size: 18px;&quot; color=&quot;#000000&quot;&gt;Notifications&lt;/font&gt;" style="text;html=1;align=center;verticalAlign=middle;resizable=1;points=[];autosize=1;strokeColor=none;fillColor=none;movable=1;rotatable=1;deletable=1;editable=1;connectable=1;" parent="1" vertex="1">
                    <mxGeometry x="755" y="175" width="120" height="40" as="geometry"/>
                </mxCell>
                <mxCell id="81" value="&lt;font style=&quot;font-size: 16px;&quot; color=&quot;#000000&quot;&gt;Email&lt;/font&gt;" style="whiteSpace=wrap;html=1;fontColor=#FFFFFF;fillColor=transparent;strokeColor=#FF0000;" parent="1" vertex="1">
                    <mxGeometry x="752.5" y="260" width="120" height="60" as="geometry"/>
                </mxCell>
                <object label="&lt;font style=&quot;font-size: 16px;&quot;&gt;Input: Subdomains&lt;/font&gt;" hedietLinkedDataV1_path="../../1-problem/2-subdomains.md" id="89">
                    <mxCell style="whiteSpace=wrap;html=1;fontSize=16;" parent="1" vertex="1">
                        <mxGeometry x="50" y="40" width="157.14" height="50" as="geometry"/>
                    </mxCell>
                </object>
            </root>
        </mxGraphModel>
    </diagram>
</mxfile>
